<svg width="389" height="130" xmlns="http://www.w3.org/2000/svg">

 <g>
  <title>background</title>
  <rect fill="none" id="canvas_background" height="132" width="391" y="-1" x="-1"/>
 </g>
 <g>
  <title>Layer 1</title>
  <g id="#ffffffff"/>
  <g id="#212121ff">
   <path id="svg_1" d="m130.3,9.09c-0.05,-2.84 3.11,-4.41 5.61,-4.25c39.39,0 78.78,-0.01 118.18,0c2.66,-0.08 5.41,2.35 5.23,5.1c0.03,9.07 -0.01,18.13 0.01,27.2c0.19,2.79 -2.47,5.42 -5.27,5.19c-12.27,-0.03 -24.53,-0.05 -36.8,0c0.02,26.24 -0.02,52.47 0.02,78.71c0.35,2.98 -2.35,5.5 -5.29,5.19c-11.69,0.05 -23.38,0.02 -35.07,0.02c-1.77,0.17 -3.01,-1.33 -4.37,-2.19c-0.17,-1.69 -0.3,-3.38 -0.29,-5.07c0.05,-25.53 -0.03,-51.05 0.04,-76.58c-12.45,-0.24 -24.9,-0.04 -37.34,-0.1c-2.74,0.14 -5.07,-2.61 -4.71,-5.29c0.01,-9.31 -0.07,-18.63 0.05,-27.93z" fill="#00CC99"/>
   <path id="svg_2" d="m79.97,7.96c2.25,-1.59 5.99,0.07 5.59,3.02c0.05,9.68 0.06,19.36 0,29.04c0.35,2.72 -2.09,4.18 -4,5.49c-10.4,6.97 -21.35,13.14 -31.65,20.24c10.65,6.41 21.04,13.23 31.64,19.73c2.25,1.44 4.2,3.83 4.03,6.65c-0.04,10.03 0.16,20.07 -0.12,30.1c-1.61,1.27 -3.89,2.17 -5.76,0.83c-22.87,-14.71 -45.75,-29.4 -68.6,-44.14c-3.36,-2.09 -7.41,-4.18 -8.66,-8.24c-0.35,-3.52 -0.33,-7.11 0.06,-10.63c1.66,-4.05 5.81,-6.05 9.29,-8.27c22.73,-14.6 45.44,-29.24 68.18,-43.82z" fill="#00CC99"/>
   <path id="svg_3" d="m303.7,11.93c-0.11,-1.95 1.05,-4.66 3.34,-4.55c2.34,-0.24 4.03,1.59 5.88,2.68c21.11,13.64 42.29,27.16 63.39,40.81c3.48,2.31 7.52,4.12 9.97,7.67c1.52,2.17 0.85,4.97 1.02,7.45c-0.12,2.15 0.34,4.54 -0.93,6.44c-1.78,2.9 -4.8,4.61 -7.63,6.3c-22.72,14.73 -45.56,29.26 -68.28,43.98c-1.58,1.29 -3.69,1.05 -5.52,0.55c-0.29,-0.59 -0.87,-1.78 -1.16,-2.37c-0.17,-9.29 -0.02,-18.6 -0.08,-27.89c-0.14,-1.77 0.52,-3.41 1.09,-5.04c11.28,-8.04 23.45,-14.74 34.93,-22.47c-10.74,-6.64 -21.4,-13.42 -32.11,-20.11c-1.99,-1.17 -3.24,-3.12 -3.87,-5.29c-0.07,-9.39 -0.02,-18.77 -0.04,-28.16z" fill="#00CC99"/>
  </g>
 </g>
</svg>