<?xml version="1.0" encoding="UTF-8" ?>
<!DOCTYPE svg PUBLIC "-//W3C//DTD SVG 1.1//EN" "http://www.w3.org/Graphics/SVG/1.1/DTD/svg11.dtd">
<svg width="73pt" height="20pt" viewBox="0 0 73 20" version="1.1" xmlns="http://www.w3.org/2000/svg">
<g id="#eef1f5ff">
</g>
<g id="#97d272ff">
<path fill="#97d272" opacity="1.00" d=" M 56.42 3.43 C 61.44 2.46 65.96 9.25 62.36 13.29 C 59.75 17.54 52.79 16.36 51.44 11.69 C 49.80 8.14 52.87 4.07 56.42 3.43 Z" />
</g>
<g id="#ef534aff">
<path fill="#ef534a" opacity="1.00" d=" M 10.57 4.27 C 14.76 1.30 20.97 5.83 19.86 10.67 C 19.32 15.41 12.82 17.80 9.44 14.33 C 6.18 11.62 6.91 6.26 10.57 4.27 Z" />
</g>
<g id="#edc04aff">
<path fill="#edc04a" opacity="1.00" d=" M 32.36 4.23 C 36.64 1.37 42.94 5.87 41.67 10.81 C 41.05 14.98 35.49 17.75 32.06 14.89 C 28.14 12.59 28.37 6.35 32.36 4.23 Z" />
</g>
</svg>
