<?xml version="1.0" encoding="UTF-8" ?>
<!DOCTYPE svg PUBLIC "-//W3C//DTD SVG 1.1//EN" "http://www.w3.org/Graphics/SVG/1.1/DTD/svg11.dtd">
<svg width="712pt" height="490pt" viewBox="0 0 712 490" version="1.1" xmlns="http://www.w3.org/2000/svg">
<g id="#eef1f5ff">
<path fill="#eef1f5" opacity="1.00" d=" M 4.07 0.00 L 706.27 0.00 C 708.32 0.72 710.25 2.59 709.96 4.94 C 710.06 15.19 709.96 25.44 710.00 35.68 C 474.00 35.67 238.00 35.67 2.00 35.68 C 2.04 25.41 1.93 15.15 2.04 4.88 C 1.74 2.74 3.49 1.30 4.95 0.08 L 4.07 0.00 Z" />
</g>
<g id="#353b46ff">
<path fill="#353b46" opacity="1.00" d=" M 2.00 35.68 C 238.00 35.67 474.00 35.67 710.00 35.68 C 709.99 184.80 710.03 333.93 709.98 483.05 C 710.68 486.44 706.88 488.22 704.05 488.00 C 473.70 488.00 243.38 488.00 13.05 488.01 C 9.42 487.86 4.90 488.89 2.29 485.64 C 1.57 476.46 2.18 467.20 2.00 457.98 C 2.00 317.22 2.00 176.45 2.00 35.68 Z" />
</g>
</svg>
